<?xml version="1.0" encoding="utf-8"?>
<!-- Generator: Adobe Illustrator 17.1.0, SVG Export Plug-In . SVG Version: 6.00 Build 0)  -->
<!DOCTYPE svg PUBLIC "-//W3C//DTD SVG 1.1//EN" "http://www.w3.org/Graphics/SVG/1.1/DTD/svg11.dtd">
<svg version="1.1" id="Layer_1" xmlns="http://www.w3.org/2000/svg" xmlns:xlink="http://www.w3.org/1999/xlink" x="0px" y="0px"
	 viewBox="0 0 130 40" enable-background="new 0 0 130 40" xml:space="preserve">
<g>
	<g id="XMLID_3_">
		<g>
			<path fill="#FFFFFF" d="M32,11.3L16,39L0,11.3H32z M16,33.8V13.9H4.5L16,33.8z"/>
		</g>
	</g>
</g>
<g>
	<g id="XMLID_4_">
		<g>
			<polygon fill="#FFFFFF" points="124.4,15.9 120.3,35 117.9,35 113.8,15.9 116.3,15.9 119.1,30 122,15.9 			"/>
			<rect x="104.9" y="15.9" fill="#FFFFFF" width="2.3" height="19.2"/>
			<polygon fill="#FFFFFF" points="100,15.9 98.8,17.8 95.5,17.8 95.5,35 93.2,35 93.2,17.8 88.9,17.8 90,15.9 			"/>
			<path fill="#FFFFFF" d="M84.3,33.1l-1.3,2h-2c-0.9,0-1.7-0.1-2.2-0.3c-0.6-0.2-1-0.5-1.4-0.9c-0.5-0.5-0.8-1.1-1-1.8
				c-0.2-0.7-0.3-1.7-0.3-3v-7.3c0-1.4,0.1-2.5,0.4-3.3c0.3-0.8,0.8-1.5,1.4-1.9c0.7-0.5,1.7-0.7,3.1-0.7h3.2h0.1l-1.3,2h-1.9
				c-0.7,0-1.1,0.1-1.4,0.2c-0.3,0.1-0.5,0.3-0.7,0.6c-0.2,0.3-0.3,0.7-0.4,1.2c-0.1,0.5-0.1,1.1-0.1,1.9V29c0,0.5,0,1,0,1.4
				c0,0.4,0.1,0.7,0.1,0.9c0,0.3,0.1,0.5,0.2,0.7c0.1,0.2,0.2,0.3,0.3,0.5c0.2,0.3,0.5,0.4,0.7,0.5c0.3,0.1,0.7,0.1,1.4,0.1H84.3z"
				/>
			<rect x="66.9" y="15.9" fill="#FFFFFF" width="2.3" height="19.2"/>
			<polygon fill="#FFFFFF" points="61,15.9 56.9,35 54.5,35 50.4,15.9 52.9,15.9 55.8,30 58.6,15.9 			"/>
		</g>
	</g>
</g>
</svg>
